<?xml version="1.0" standalone="no"?><!DOCTYPE svg PUBLIC "-//W3C//DTD SVG 1.1//EN" "http://www.w3.org/Graphics/SVG/1.1/DTD/svg11.dtd"><svg t="1644226770705" class="icon" viewBox="0 0 1152 1024" version="1.1" xmlns="http://www.w3.org/2000/svg" p-id="2436" xmlns:xlink="http://www.w3.org/1999/xlink" width="225" height="200"><defs><style type="text/css"></style></defs><path d="M1055.8 448H960v-96c0-53-43-96-96-96H544l-128-128H96C43 128 0 171 0 224v576c0 53 43 96 96 96h800c33 0 63.8-17 81.4-45.2l159.8-256c40-63.8-6-146.8-81.4-146.8zM96 236c0-6.6 5.4-12 12-12h268.2l128 128H852c6.6 0 12 5.4 12 12v84H304c-33.6 0-64.8 17.6-82.2 46.4L96 702.8z m800 564H144l154.4-256H1056z" p-id="2437"></path></svg>