<?xml version="1.0" standalone="no"?>
<!DOCTYPE svg PUBLIC "-//W3C//DTD SVG 1.1//EN" "http://www.w3.org/Graphics/SVG/1.1/DTD/svg11.dtd"><svg t="1644284383640"
    class="icon" viewBox="0 0 1024 1024" version="1.1" xmlns="http://www.w3.org/2000/svg" p-id="4787"
    xmlns:xlink="http://www.w3.org/1999/xlink" width="200" height="200">
    <defs>
        <style type="text/css"></style>
    </defs>
    <path
        d="M0 0m51.2 0l358.4 0q51.2 0 51.2 51.2l0 358.4q0 51.2-51.2 51.2l-358.4 0q-51.2 0-51.2-51.2l0-358.4q0-51.2 51.2-51.2Z"
        p-id="4788"></path>
    <path
        d="M563.2 0m51.2 0l358.4 0q51.2 0 51.2 51.2l0 358.4q0 51.2-51.2 51.2l-358.4 0q-51.2 0-51.2-51.2l0-358.4q0-51.2 51.2-51.2Z"
        p-id="4789"></path>
    <path
        d="M0 563.2m51.2 0l358.4 0q51.2 0 51.2 51.2l0 358.4q0 51.2-51.2 51.2l-358.4 0q-51.2 0-51.2-51.2l0-358.4q0-51.2 51.2-51.2Z"
        p-id="4790"></path>
    <path
        d="M563.2 563.2m51.2 0l358.4 0q51.2 0 51.2 51.2l0 358.4q0 51.2-51.2 51.2l-358.4 0q-51.2 0-51.2-51.2l0-358.4q0-51.2 51.2-51.2Z"
        p-id="4791"></path>
</svg>